<svg xmlns="http://www.w3.org/2000/svg" viewBox="0 0 1440 600">
  <defs>
    <linearGradient id="gradient" x1="0%" y1="0%" x2="100%" y2="100%">
      <stop offset="0%" style="stop-color:#6A11CB;stop-opacity:1" />
      <stop offset="100%" style="stop-color:#2575FC;stop-opacity:1" />
    </linearGradient>
  </defs>
  <path fill="url(#gradient)" fill-opacity="1" d="M0,128L60,149.3C120,171,240,213,360,202.7C480,192,600,128,720,117.3C840,107,960,149,1080,170.7C1200,192,1320,192,1380,192L1440,192L1440,600L1380,600C1320,600,1200,600,1080,600C960,600,840,600,720,600C600,600,480,600,360,600C240,600,120,600,60,600L0,600Z"></path>
</svg>
